<svg width="332" height="332" viewBox="0 0 332 332" fill="none" xmlns="http://www.w3.org/2000/svg">
<path d="M147.513 223.175L91.7224 149.649H91.2525V199.801C91.2525 203.716 91.37 206.809 91.6049 209.08C91.9181 211.351 92.4662 213.113 93.2492 214.366C94.1106 215.618 95.2851 216.441 96.7729 216.832C98.3389 217.224 100.375 217.458 102.88 217.537V222H71.2854V217.537C74.026 217.458 76.2185 217.224 77.8628 216.832C79.5855 216.362 80.9166 215.54 81.8562 214.366C82.7959 213.191 83.4223 211.547 83.7355 209.432C84.0487 207.24 84.2053 204.304 84.2053 200.623V152.937C84.2053 149.649 84.0487 146.947 83.7355 144.833C83.5006 142.64 82.9525 140.918 82.0912 139.665C81.3081 138.412 80.1336 137.551 78.5675 137.081C77.0015 136.533 74.9656 136.181 72.46 136.024V131.561H95.7158L147.043 200.036H147.513V153.759C147.513 149.923 147.356 146.869 147.043 144.598C146.808 142.249 146.26 140.448 145.399 139.195C144.616 137.942 143.441 137.12 141.875 136.729C140.387 136.337 138.391 136.102 135.885 136.024V131.561H167.48V136.024C164.739 136.102 162.508 136.376 160.785 136.846C159.141 137.238 157.849 138.021 156.909 139.195C155.97 140.37 155.343 142.053 155.03 144.246C154.717 146.438 154.56 149.335 154.56 152.937V223.175H147.513ZM251.533 131.561H254.821L255.879 158.575H251.533C249.81 151.684 246.482 146.282 241.549 142.366C236.616 138.451 230.665 136.494 223.696 136.494C218.92 136.494 214.652 137.433 210.894 139.313C207.135 141.192 203.964 143.893 201.38 147.417C198.796 150.941 196.799 155.247 195.39 160.337C194.059 165.426 193.393 171.182 193.393 177.603C193.393 190.209 196.016 199.919 201.263 206.731C206.509 213.465 214.104 216.832 224.049 216.832C239.161 216.832 248.87 208.806 253.177 192.754H257.993V222H253.882L251.18 212.721C242.959 219.69 233.014 223.175 221.347 223.175C214.691 223.175 208.662 222.117 203.259 220.003C197.935 217.889 193.354 214.914 189.517 211.077C185.759 207.162 182.822 202.424 180.708 196.865C178.672 191.305 177.654 185.12 177.654 178.307C177.654 171.182 178.751 164.683 180.943 158.81C183.136 152.937 186.189 147.887 190.104 143.658C194.098 139.43 198.835 136.181 204.316 133.91C209.876 131.561 215.983 130.386 222.639 130.386C227.337 130.386 231.761 131.052 235.911 132.383C240.061 133.714 244.564 135.867 249.419 138.843L251.533 131.561Z" fill="#FFE2CD"/>
<path d="M122.669 232.88H127.665C126.632 233.633 126.214 234.359 126.214 235.168V250.436L127.079 253.115H124.176L119.571 239.802V250.827C119.571 251.636 119.99 252.362 121.022 253.115H115.44C116.445 252.362 116.863 251.636 116.863 250.854V235.14C116.863 234.359 116.445 233.633 115.44 232.88H119.85L124.092 245.021V235.14C124.092 234.359 123.674 233.633 122.669 232.88ZM132.434 234.415C132.434 235.392 131.653 236.173 130.648 236.173C129.643 236.173 128.89 235.392 128.89 234.415C128.89 233.41 129.643 232.628 130.648 232.628C131.653 232.628 132.434 233.41 132.434 234.415ZM132.211 250.994C132.211 251.72 132.462 252.473 133.355 253.115H128.387C129.252 252.473 129.504 251.72 129.504 250.994V240.36C129.504 239.355 129.252 238.853 128.387 238.211H132.211V250.994ZM138.289 241.03V250.994C138.289 251.72 138.541 252.473 139.434 253.115H134.465C135.331 252.473 135.582 251.72 135.582 250.994V240.36C135.582 239.355 135.331 238.853 134.465 238.211H138.289V239.495C138.736 238.629 139.434 237.792 140.606 237.792C141.471 237.792 141.778 238.853 142.616 237.764V244.909C142.336 243.095 141.75 241.56 141.025 240.834C140.271 240.109 139.015 240.109 138.289 241.03ZM154.126 253.115H150.246V251.999C149.772 252.864 148.097 253.534 146.98 253.534C145.138 253.534 143.547 252.25 143.575 249.431C143.631 245.858 146.422 242.649 150.246 241.532C150.246 240.388 149.772 239.383 148.543 239.383C147.399 239.383 145.724 240.778 144.915 243.709V238.155C146.059 239.606 147.232 237.764 149.297 237.764C150.972 237.764 152.953 238.518 152.953 241.309V251.552C152.953 252.11 153.4 252.752 154.126 253.115ZM150.246 250.212V242.453C148.32 243.374 146.562 245.523 146.562 248.566C146.562 250.129 147.148 251.413 148.571 251.524C149.157 251.552 149.883 251.022 150.246 250.212ZM169.421 253.562C168.026 252.166 167.691 253.478 165.765 253.478C161.439 253.478 159.68 246.835 159.68 243.011C159.68 239.188 161.439 232.517 165.765 232.517C167.691 232.517 168.026 233.829 169.421 232.433V240.723C168.361 236.871 167.495 234.526 165.877 234.526C164.034 234.526 163.197 239.048 163.197 243.011C163.197 246.975 164.034 251.524 165.877 251.524C167.495 251.524 168.361 249.152 169.421 245.3V253.562ZM181.792 253.115H177.912V251.999C177.437 252.864 175.763 253.534 174.646 253.534C172.804 253.534 171.213 252.25 171.241 249.431C171.297 245.858 174.088 242.649 177.912 241.532C177.912 240.388 177.437 239.383 176.209 239.383C175.065 239.383 173.39 240.778 172.581 243.709V238.155C173.725 239.606 174.898 237.764 176.963 237.764C178.638 237.764 180.619 238.518 180.619 241.309V251.552C180.619 252.11 181.066 252.752 181.792 253.115ZM177.912 250.212V242.453C175.986 243.374 174.228 245.523 174.228 248.566C174.228 250.129 174.814 251.413 176.237 251.524C176.823 251.552 177.549 251.022 177.912 250.212ZM191.255 239.327L189.58 241.895C189.58 241.895 191.59 248.705 192.427 251.245C192.818 252.166 193.208 252.613 194.157 253.115H188.436C189.329 252.557 189.692 251.859 189.468 251.273L187.654 244.881L186.398 246.835V250.994C186.398 251.72 186.649 252.473 187.542 253.115H182.574C183.44 252.473 183.691 251.72 183.691 250.994V235.001C183.691 234.024 183.44 233.522 182.574 232.88H186.398V243.318L188.994 239.327C189.245 238.936 188.715 238.434 188.073 238.211H192.985C192.483 238.294 191.562 238.853 191.255 239.327ZM203.497 245.216H196.994C196.799 249.347 197.971 251.72 199.562 251.72C200.846 251.72 202.437 250.129 202.492 247.421C202.492 247.058 202.465 246.668 202.381 246.277L203.497 246.472C203.525 246.835 203.525 247.198 203.525 247.533C203.525 251.692 201.209 253.534 199.087 253.534C195.57 253.534 193.812 249.598 193.812 245.775C193.812 242.286 195.543 237.792 198.976 237.792C202.046 237.792 203.776 242.062 203.497 245.216ZM200.734 244.1C200.957 242.341 200.176 239.299 198.892 239.299C197.608 239.299 197.022 242.202 197.078 244.1H200.734ZM214.527 249.459C214.527 251.385 213.382 252.669 212.294 253.115C210.563 253.869 208.861 253.506 207.27 252.808C206.907 252.641 206.237 252.473 205.79 253.45V244.742C206.014 246.221 207.046 251.441 209.698 251.441C210.647 251.441 211.345 250.771 211.345 249.375C211.345 247.17 209.475 245.719 207.716 244.463C206.6 243.653 205.623 242.676 205.623 241.002C205.623 239.327 206.795 237.792 209.503 237.792C211.261 237.792 211.819 239.132 212.991 237.848V243.318C212.377 241.588 210.814 239.522 209.279 239.578C208.135 239.606 207.828 241.281 208.777 242.118C210.256 243.402 214.527 245.216 214.527 249.459Z" fill="#FFE2CD"/>
<path d="M161.289 293.767L159.04 293.713C159.513 293.385 159.709 293.063 159.718 292.698L159.883 285.827L159.522 284.612L160.829 284.643L162.758 290.685L162.877 285.723C162.885 285.358 162.705 285.027 162.248 284.677L164.761 284.737C164.3 285.066 164.104 285.388 164.096 285.739L163.926 292.812C163.917 293.164 164.098 293.495 164.542 293.845L162.557 293.797L160.779 288.287L160.672 292.734C160.664 293.086 160.844 293.417 161.289 293.767Z" fill="#FFE2CD"/>
<path d="M155.831 284.327L158.287 284.504C157.837 284.799 157.668 285.228 157.65 285.479L157.141 292.535C157.123 292.786 157.23 293.234 157.632 293.591L155.176 293.414C155.625 293.119 155.795 292.69 155.813 292.439L156.321 285.383C156.339 285.132 156.233 284.684 155.831 284.327Z" fill="#FFE2CD"/>
<path d="M148.325 289.652C148.496 288.23 149.312 287.341 150.414 286.917C150.142 286.758 149.917 286.528 149.736 286.241C149.51 285.91 149.406 285.302 149.319 284.659C149.276 284.388 149.146 283.891 148.731 283.55L150.478 283.761C150.652 283.782 150.78 284.088 150.737 284.653C150.683 285.317 150.826 286.334 151.496 286.655C151.521 286.658 151.547 286.649 151.585 286.653L151.791 284.944C151.821 284.694 151.736 284.241 151.351 283.866L153.784 284.159C153.333 284.434 153.143 284.854 153.113 285.103L152.267 292.127C152.237 292.377 152.321 292.83 152.694 293.204L151.209 293.025C150.448 292.933 148.94 292.536 148.491 291.216C148.322 290.728 148.26 290.189 148.325 289.652ZM149.885 289.524C149.747 290.874 150.201 292.043 150.875 292.124L150.925 292.13L151.495 287.402C150.621 287.296 149.997 288.588 149.885 289.524Z" fill="#FFE2CD"/>
<path d="M145.189 286.936L144.086 286.749L144.233 289.119L145.189 286.936ZM141.88 282.399L144.494 282.842C144.03 283.095 143.887 283.415 143.902 283.774L144.029 285.886L145.528 286.14L146.467 284.056C146.59 283.783 146.494 283.449 146.29 283.146L148.21 283.472C147.819 283.673 147.575 283.912 147.432 284.232L143.851 291.973L143.12 291.849L142.374 283.541C142.354 283.359 142.257 282.807 141.88 282.399Z" fill="#FFE2CD"/>
<path d="M132.579 279.859C133.022 280.63 133.321 280.099 134.158 280.325C136.039 280.833 136.023 283.927 135.574 285.588C135.125 287.25 133.578 289.943 131.698 289.436C130.861 289.209 130.869 288.6 130.099 289.043L131.072 285.44C131.081 287.238 131.181 288.359 131.885 288.549C132.686 288.765 133.58 286.898 134.046 285.176C134.511 283.453 134.681 281.377 133.88 281.161C133.177 280.971 132.522 281.901 131.609 283.45L132.579 279.859Z" fill="#FFE2CD"/>
<path d="M128.005 282.753L126.941 282.41L126.746 284.776L128.005 282.753ZM125.38 277.788L127.904 278.601C127.409 278.785 127.221 279.081 127.185 279.439L127.008 281.547L128.455 282.013L129.683 280.086C129.844 279.834 129.796 279.488 129.638 279.16L131.492 279.758C131.076 279.901 130.8 280.102 130.612 280.398L125.959 287.546L125.253 287.319L125.706 278.989C125.713 278.806 125.695 278.246 125.38 277.788Z" fill="#FFE2CD"/>
<path d="M120.844 276.029L123.232 276.927C122.725 277.099 122.671 277.454 122.646 277.807L122.391 281.162L123.064 280.515L123.909 278.269C123.997 278.034 124.023 277.573 123.738 277.117L126.043 277.984C125.528 278.14 125.244 278.503 125.155 278.738L122.665 285.359C122.577 285.595 122.551 286.055 122.836 286.511L120.531 285.644C121.046 285.489 121.33 285.126 121.418 284.891L122.423 282.221L119.827 284.588C119.605 284.786 119.702 285.171 119.943 285.423L117.979 284.684C118.345 284.674 118.77 284.472 119.034 284.235L120.821 282.625L121.223 277.272C121.245 276.999 121.194 276.456 120.844 276.029Z" fill="#FFE2CD"/>
<path d="M115.516 276.674L116.592 274.183L120.341 275.802C119.819 275.932 119.518 276.281 119.418 276.512L116.613 283.007C116.514 283.237 116.466 283.696 116.729 284.165L112.98 282.546L113.827 280.585C113.954 281.844 114.642 282.279 115.346 282.582L116.272 280.437L115.788 280.228C115.188 279.968 114.719 280.231 114.447 280.607L115.463 278.253C115.376 278.708 115.507 279.23 116.107 279.489L116.591 279.699L118.23 275.903C117.364 275.406 116.393 275.657 115.516 276.674Z" fill="#FFE2CD"/>
<path d="M110.295 273.663C111.174 271.869 112.366 271.977 113.303 272.436C113.991 272.774 114.23 273.171 114.524 273.314C114.682 273.392 114.845 273.402 115.102 273.276L112.785 278.004C113.483 276.065 113.751 273.663 112.995 273.293C112.521 273.061 112.141 273.322 111.776 274.067C110.626 276.414 112.533 278.062 111.828 279.9C111.536 280.638 110.493 281.568 109.094 280.883C108.552 280.617 108.42 280.231 108.149 280.098C108.002 280.026 107.811 280.016 107.497 280.142L108.974 277.13C108.733 277.935 108.883 279.856 109.628 280.221C110.124 280.464 110.401 279.984 110.487 279.495C110.606 278.825 110.317 277.872 110.177 277.216C109.943 276.094 109.692 274.893 110.295 273.663Z" fill="#FFE2CD"/>
<path d="M97.3642 274.163L95.4485 272.984C96.0222 272.939 96.354 272.759 96.5449 272.449L100.147 266.595L100.447 265.363L101.56 266.048L100.185 272.24L102.786 268.012C102.977 267.702 102.988 267.325 102.77 266.792L104.91 268.109C104.347 268.161 104.015 268.341 103.831 268.64L100.124 274.666C99.9392 274.965 99.9286 275.342 100.136 275.868L98.4451 274.828L99.6828 269.171L97.3517 272.96C97.1674 273.26 97.1567 273.637 97.3642 274.163Z" fill="#FFE2CD"/>
<path d="M97.4008 263.259L99.4341 264.649C98.897 264.677 98.5348 264.962 98.3929 265.17L94.4011 271.011C94.2592 271.218 94.1252 271.659 94.2936 272.17L92.2602 270.78C92.7973 270.752 93.1596 270.466 93.3014 270.259L97.2933 264.418C97.4351 264.211 97.5691 263.77 97.4008 263.259Z" fill="#FFE2CD"/>
<path d="M88.2348 264.081C89.0989 262.939 90.2513 262.581 91.4167 262.769C91.262 262.495 91.1828 262.183 91.1716 261.844C91.143 261.444 91.359 260.867 91.6077 260.267C91.7067 260.011 91.8444 259.517 91.6579 259.013L93.0611 260.074C93.2014 260.181 93.1573 260.51 92.8363 260.976C92.4546 261.522 92.0663 262.473 92.4835 263.088C92.5036 263.103 92.5312 263.108 92.5613 263.131L93.5997 261.758C93.7513 261.557 93.9063 261.123 93.7626 260.605L95.717 262.083C95.1892 262.093 94.8136 262.361 94.662 262.561L90.3947 268.204C90.2431 268.404 90.0881 268.839 90.2217 269.349L89.0291 268.447C88.4177 267.985 87.3138 266.882 87.5907 265.516C87.6908 265.009 87.9089 264.512 88.2348 264.081ZM89.647 264.755C88.8485 265.853 88.6525 267.091 89.1937 267.5L89.2338 267.531L92.1065 263.732C91.4049 263.202 90.2155 264.004 89.647 264.755Z" fill="#FFE2CD"/>
<path d="M86.8928 260.155L86.0342 259.439L84.9676 261.56L86.8928 260.155ZM86.3177 254.569L88.3533 256.268C87.8256 256.253 87.5407 256.457 87.3731 256.775L86.4193 258.663L87.5866 259.638L89.4475 258.31C89.6905 258.137 89.776 257.799 89.7522 257.435L91.2475 258.683C90.8083 258.66 90.4768 258.744 90.1919 258.948L83.201 263.834L82.6318 263.359L86.1704 255.804C86.2445 255.637 86.438 255.111 86.3177 254.569Z" fill="#FFE2CD"/>
<path d="M79.5604 247.692C79.5551 248.581 80.0811 248.273 80.6905 248.89C82.0595 250.275 80.4886 252.94 79.264 254.15C78.0394 255.36 75.3467 256.908 73.9778 255.523C73.3684 254.906 73.6825 254.383 72.794 254.378L75.4487 251.755C74.5508 253.313 74.0738 254.332 74.586 254.851C75.1689 255.441 76.8819 254.278 78.1512 253.024C79.4204 251.77 80.6124 250.062 80.0295 249.472C79.5173 248.954 78.4837 249.427 76.9146 250.307L79.5604 247.692Z" fill="#FFE2CD"/>
<path d="M74.1515 247.89L73.4045 247.057L72.0447 249.004L74.1515 247.89ZM74.3834 242.279L76.1543 244.252C75.6342 244.161 75.323 244.323 75.1115 244.614L73.8968 246.345L74.9123 247.477L76.9443 246.43C77.2098 246.293 77.3428 245.971 77.3713 245.608L78.6723 247.057C78.2409 246.972 77.9009 247.007 77.5896 247.168L69.9703 251.001L69.4751 250.449L74.0604 243.48C74.1578 243.325 74.4246 242.832 74.3834 242.279Z" fill="#FFE2CD"/>
<path d="M71.3498 238.475L72.9606 240.453C72.4357 240.345 72.2105 240.626 72.0109 240.918L70.102 243.688L71.0088 243.468L72.8697 241.953C73.0646 241.794 73.3183 241.409 73.3018 240.872L74.8571 242.781C74.334 242.656 73.9057 242.827 73.7109 242.986L68.2254 247.453C68.0305 247.612 67.7768 247.997 67.7933 248.534L66.238 246.625C66.7611 246.75 67.1894 246.579 67.3843 246.42L69.596 244.619L66.1621 245.358C65.8702 245.417 65.7598 245.799 65.8412 246.137L64.516 244.51C64.8375 244.686 65.3068 244.725 65.6536 244.653L68.0082 244.162L71.0508 239.739C71.2078 239.514 71.437 239.02 71.3498 238.475Z" fill="#FFE2CD"/>
<path d="M66.4209 236.35L68.6052 234.738L71.0294 238.025C70.5128 237.875 70.0768 238.025 69.8746 238.174L64.1812 242.374C63.979 242.523 63.7071 242.895 63.6978 243.433L61.2736 240.146L62.9928 238.878C62.4683 240.03 62.8446 240.752 63.2996 241.369L65.1805 239.981L64.8672 239.557C64.4794 239.031 63.9416 239.021 63.5179 239.209L65.5809 237.687C65.2765 238.037 65.1266 238.553 65.5144 239.079L65.8277 239.504L69.1547 237.05C68.6565 236.184 67.6911 235.912 66.4209 236.35Z" fill="#FFE2CD"/>
<path d="M63.4258 231.119C65.0887 230.012 66.0642 230.706 66.6423 231.574C67.0672 232.212 67.074 232.675 67.2551 232.947C67.3526 233.094 67.4885 233.184 67.7743 233.205L63.3921 236.124C64.9715 234.8 66.4117 232.86 65.945 232.159C65.6525 231.72 65.1924 231.754 64.5022 232.214C62.3268 233.663 63.1447 236.047 61.6107 237.28C60.9867 237.771 59.6169 238.049 58.7532 236.753C58.4188 236.251 58.4992 235.85 58.332 235.599C58.2414 235.463 58.0812 235.358 57.7466 235.309L60.539 233.45C59.9254 234.024 59.0882 235.759 59.5479 236.45C59.8544 236.91 60.3355 236.635 60.6563 236.255C61.0956 235.736 61.3261 234.767 61.5355 234.13C61.8984 233.042 62.2858 231.879 63.4258 231.119Z" fill="#FFE2CD"/>
<path d="M52.002 225.041L50.9402 223.058C51.4588 223.308 51.8358 223.32 52.157 223.148L58.2165 219.903L59.096 218.99L59.7129 220.142L55.4077 224.8L59.7833 222.457C60.1046 222.285 60.3036 221.964 60.3832 221.394L61.5696 223.61C61.0569 223.371 60.6799 223.359 60.3698 223.525L54.1331 226.865C53.8229 227.031 53.6239 227.351 53.5383 227.91L52.6011 226.16L56.5182 221.896L52.5968 223.996C52.2866 224.162 52.0876 224.482 52.002 225.041Z" fill="#FFE2CD"/>
<path d="M57.5234 215.638L58.5806 217.863C58.1022 217.617 57.6456 217.681 57.4186 217.789L51.029 220.826C50.802 220.934 50.4641 221.247 50.3524 221.773L49.2952 219.549C49.7737 219.795 50.2303 219.731 50.4573 219.623L56.8469 216.586C57.0739 216.478 57.4117 216.164 57.5234 215.638Z" fill="#FFE2CD"/>
<path d="M49.1896 211.734C50.5114 211.182 51.687 211.454 52.5992 212.203C52.6038 211.888 52.6924 211.579 52.8536 211.28C53.0301 210.92 53.5073 210.53 54.0241 210.137C54.2385 209.966 54.6064 209.608 54.6987 209.079L55.3768 210.702C55.4446 210.865 55.2409 211.127 54.7289 211.368C54.124 211.648 53.3097 212.274 53.3607 213.015C53.3704 213.038 53.3916 213.057 53.4062 213.092L54.9947 212.428C55.2266 212.331 55.5791 212.034 55.7159 211.514L56.6604 213.775C56.1991 213.518 55.74 213.56 55.5081 213.657L48.9802 216.384C48.7483 216.481 48.3958 216.778 48.2541 217.286L47.6778 215.907C47.3823 215.199 46.9837 213.691 47.9107 212.65C48.2525 212.262 48.691 211.943 49.1896 211.734ZM50.0704 213.028C48.8278 213.574 48.0351 214.545 48.2967 215.172L48.3161 215.218L52.7105 213.382C52.3714 212.571 50.94 212.665 50.0704 213.028Z" fill="#FFE2CD"/>
<path d="M50.0068 207.667L49.6257 206.615L47.6361 207.911L50.0068 207.667ZM52.3224 202.55L53.2259 205.043C52.7774 204.764 52.4285 204.797 52.1234 204.988L50.3487 206.139L50.8668 207.569L53.143 207.359C53.4404 207.331 53.6843 207.082 53.8468 206.756L54.5105 208.587C54.1425 208.346 53.8141 208.251 53.4652 208.284L44.965 208.986L44.7124 208.289L51.5731 203.544C51.7214 203.436 52.1533 203.079 52.3224 202.55Z" fill="#FFE2CD"/>
<path d="M49.9459 193.207C49.4939 193.972 50.1035 193.971 50.3195 194.81C50.8048 196.697 48.1057 198.209 46.4384 198.637C44.7712 199.066 41.6655 199.048 41.1802 197.162C40.9642 196.322 41.4986 196.029 40.7336 195.577L44.3479 194.647C42.7875 195.541 41.8623 196.182 42.0439 196.888C42.2505 197.691 44.3159 197.549 46.044 197.104C47.772 196.659 49.6617 195.784 49.4551 194.981C49.2735 194.275 48.142 194.164 46.3437 194.134L49.9459 193.207Z" fill="#FFE2CD"/>
<path d="M45.1731 190.654L44.9467 189.559L42.7918 190.556L45.1731 190.654ZM48.1984 185.923L48.7352 188.519C48.3313 188.179 47.9812 188.162 47.6519 188.307L45.7305 189.192L46.0383 190.681L48.3211 190.799C48.6194 190.814 48.8965 190.603 49.104 190.304L49.4983 192.211C49.1686 191.92 48.8572 191.779 48.5072 191.761L39.9942 191.237L39.8441 190.511L47.3144 186.798C47.4765 186.714 47.9552 186.422 48.1984 185.923Z" fill="#FFE2CD"/>
<path d="M47.4923 181.109L47.8883 183.629C47.4887 183.272 47.1529 183.401 46.8333 183.553L43.7894 184.985L44.6835 185.252L47.0545 184.879C47.3027 184.84 47.7158 184.635 47.9722 184.163L48.3545 186.596C47.9655 186.224 47.5095 186.156 47.2613 186.195L40.2725 187.293C40.0242 187.332 39.6112 187.537 39.3548 188.01L38.9724 185.577C39.3615 185.948 39.8175 186.017 40.0657 185.978L42.8836 185.535L39.5449 184.444C39.2627 184.348 38.9751 184.623 38.8749 184.956L38.5491 182.883C38.7383 183.197 39.1242 183.467 39.4599 183.58L41.7419 184.34L46.5973 182.051C46.8462 181.936 47.2933 181.624 47.4923 181.109Z" fill="#FFE2CD"/>
<path d="M44.3034 176.791L47.0019 176.499L47.4417 180.559C47.0709 180.169 46.6188 180.079 46.3689 180.106L39.3355 180.868C39.0857 180.895 38.6633 181.08 38.3845 181.54L37.9447 177.48L40.0684 177.25C39.0354 177.981 38.9971 178.794 39.0796 179.556L41.4033 179.305L41.3464 178.78C41.2761 178.13 40.8161 177.851 40.3556 177.8L42.9041 177.524C42.4652 177.673 42.0756 178.044 42.146 178.693L42.2028 179.218L46.3129 178.773C46.3184 177.774 45.621 177.053 44.3034 176.791Z" fill="#FFE2CD"/>
<path d="M44.349 170.764C46.3434 170.645 46.8369 171.735 46.8993 172.776C46.9453 173.542 46.7178 173.945 46.7373 174.272C46.7479 174.447 46.8196 174.594 47.0559 174.756L41.8003 175.071C43.8313 174.723 46.0527 173.771 46.0023 172.931C45.9706 172.404 45.5557 172.202 44.7279 172.252C42.1189 172.409 41.6252 174.881 39.679 175.174C38.8926 175.284 37.569 174.834 37.4756 173.279C37.4395 172.677 37.7107 172.371 37.6926 172.07C37.6828 171.907 37.597 171.736 37.3326 171.525L40.6816 171.324C39.8621 171.512 38.2651 172.59 38.3148 173.418C38.3479 173.969 38.9021 173.974 39.3704 173.807C40.0114 173.58 40.6982 172.859 41.2002 172.414C42.0612 171.657 42.9818 170.846 44.349 170.764Z" fill="#FFE2CD"/>
<path d="M37.5388 159.761L37.6197 157.514C37.9421 157.99 38.2618 158.191 38.626 158.204L45.495 158.451L46.7145 158.105L46.6675 159.411L40.603 161.267L45.5632 161.446C45.9274 161.459 46.2607 161.282 46.6165 160.83L46.5261 163.341C46.2033 162.877 45.8836 162.677 45.532 162.664L38.462 162.41C38.1104 162.397 37.7771 162.574 37.4218 163.014L37.4932 161.03L43.0245 159.318L38.5791 159.158C38.2274 159.145 37.8942 159.322 37.5388 159.761Z" fill="#FFE2CD"/>
<path d="M47.0433 154.417L46.8368 156.871C46.5471 156.418 46.1204 156.243 45.87 156.222L38.8203 155.629C38.5699 155.608 38.1201 155.709 37.7587 156.107L37.9652 153.653C38.2549 154.106 38.6816 154.281 38.932 154.302L45.9816 154.895C46.2321 154.916 46.6819 154.815 47.0433 154.417Z" fill="#FFE2CD"/>
<path d="M41.8083 146.848C43.2284 147.037 44.1075 147.863 44.5184 148.97C44.681 148.7 44.9133 148.477 45.203 148.3C45.5367 148.078 46.1453 147.981 46.7896 147.902C47.0611 147.862 47.5592 147.738 47.9052 147.327L47.6739 149.071C47.6507 149.246 47.3427 149.37 46.7789 149.32C46.1154 149.258 45.0966 149.389 44.7674 150.055C44.7641 150.08 44.7732 150.106 44.7683 150.144L46.4748 150.37C46.7239 150.403 47.1781 150.324 47.5582 149.943L47.2359 152.372C46.9666 151.918 46.5488 151.723 46.2996 151.69L39.2866 150.76C39.0374 150.727 38.5833 150.806 38.2049 151.174L38.4015 149.692C38.5023 148.932 38.9174 147.428 40.2423 146.995C40.733 146.832 41.2727 146.777 41.8083 146.848ZM41.9181 148.409C40.5695 148.256 39.3957 148.696 39.3064 149.368L39.2998 149.418L44.0209 150.044C44.1365 149.172 42.8524 148.533 41.9181 148.409Z" fill="#FFE2CD"/>
<path d="M44.5621 143.745L44.7622 142.644L42.3907 142.762L44.5621 143.745ZM49.1387 140.49L48.6644 143.098C48.4171 142.632 48.0991 142.485 47.7394 142.496L45.6264 142.597L45.3544 144.093L47.4269 145.057C47.6978 145.183 48.0339 145.091 48.3384 144.891L47.99 146.807C47.7933 146.414 47.5573 146.167 47.2392 146.019L39.5416 142.346L39.6742 141.617L47.9912 140.971C48.1733 140.953 48.7262 140.862 49.1387 140.49Z" fill="#FFE2CD"/>
<path d="M51.7896 131.22C51.0139 131.654 51.5411 131.96 51.305 132.794C50.7747 134.668 47.6815 134.616 46.025 134.147C44.3685 133.678 41.6944 132.098 42.2248 130.224C42.4609 129.39 43.0702 129.406 42.6367 128.63L46.2277 129.646C44.4292 129.634 43.3074 129.721 43.109 130.422C42.8832 131.22 44.7392 132.137 46.4561 132.623C48.1731 133.109 50.2465 133.304 50.4724 132.506C50.6708 131.805 49.7492 131.139 48.2106 130.208L51.7896 131.22Z" fill="#FFE2CD"/>
<path d="M48.9509 126.612L49.3067 125.552L46.9428 125.329L48.9509 126.612ZM53.947 124.047L53.1035 126.561C52.9257 126.064 52.632 125.873 52.2745 125.832L50.1688 125.629L49.6851 127.071L51.5979 128.322C51.8479 128.486 52.1937 128.443 52.5239 128.288L51.9042 130.135C51.766 129.717 51.5679 129.439 51.2742 129.247L44.1828 124.509L44.4186 123.806L52.7423 124.359C52.9251 124.367 53.4854 124.356 53.947 124.047Z" fill="#FFE2CD"/>
<path d="M55.7603 119.533L54.8337 121.909C54.6683 121.4 54.3131 121.342 53.9604 121.312L50.6093 121.018L51.2476 121.698L53.4838 122.57C53.7179 122.661 54.1779 122.692 54.6375 122.413L53.7429 124.707C53.5937 124.191 53.2342 123.902 53 123.811L46.4086 121.241C46.1745 121.15 45.7145 121.119 45.2549 121.398L46.1495 119.104C46.2987 119.62 46.6583 119.909 46.8924 120L49.55 121.036L47.2145 118.413C47.0188 118.188 46.6323 118.28 46.3777 118.518L47.1399 116.563C47.1454 116.929 47.3429 117.357 47.5762 117.623L49.1649 119.429L54.5127 119.896C54.7859 119.921 55.3293 119.877 55.7603 119.533Z" fill="#FFE2CD"/>
<path d="M55.179 114.196L57.6576 115.302L55.9936 119.032C55.8693 118.509 55.524 118.203 55.2945 118.101L48.8339 115.218C48.6044 115.116 48.1464 115.063 47.674 115.32L49.338 111.59L51.2888 112.461C50.0281 112.572 49.5857 113.256 49.2733 113.956L51.4078 114.908L51.6228 114.426C51.889 113.829 51.632 113.357 51.2599 113.081L53.6008 114.125C53.1468 114.033 52.6235 114.157 52.3572 114.754L52.1422 115.236L55.9176 116.92C56.4253 116.06 56.1856 115.086 55.179 114.196Z" fill="#FFE2CD"/>
<path d="M58.2524 109.012C60.0359 109.913 59.9131 111.104 59.443 112.034C59.0974 112.719 58.6975 112.953 58.5502 113.245C58.4709 113.402 58.459 113.565 58.5816 113.824L53.8819 111.45C55.8121 112.172 58.2105 112.468 58.5901 111.716C58.828 111.245 58.571 110.862 57.8307 110.488C55.4976 109.31 53.8267 111.197 51.9976 110.471C51.2626 110.17 50.3452 109.115 51.0476 107.724C51.3195 107.186 51.7078 107.058 51.8437 106.789C51.9173 106.643 51.9293 106.452 51.807 106.137L54.8018 107.65C53.9992 107.399 52.0768 107.526 51.7029 108.267C51.4537 108.76 51.9302 109.043 52.4188 109.135C53.087 109.261 54.0435 108.984 54.7015 108.852C55.8263 108.631 57.0298 108.395 58.2524 109.012Z" fill="#FFE2CD"/>
<path d="M57.9082 96.0765L59.1097 94.175C59.1482 94.7493 59.3237 95.0832 59.6317 95.2778L65.4423 98.9497L66.6701 99.2648L65.972 100.37L59.7974 98.9203L63.9933 101.572C64.3014 101.767 64.6783 101.782 65.2135 101.57L63.8709 103.694C63.8258 103.131 63.6503 102.797 63.3528 102.609L57.3724 98.8297C57.0749 98.6417 56.698 98.6265 56.1696 98.8277L57.2302 97.1493L62.8713 98.4547L59.1109 96.0784C58.8135 95.8905 58.4366 95.8753 57.9082 96.0765Z" fill="#FFE2CD"/>
<path d="M68.8107 96.244L67.3967 98.2605C67.3745 97.7231 67.0938 97.3574 66.888 97.2132L61.0956 93.1515C60.8898 93.0072 60.4504 92.8679 59.9376 93.0301L61.3516 91.0136C61.3738 91.551 61.6546 91.9167 61.8603 92.0609L67.6527 96.1226C67.8585 96.2669 68.298 96.4062 68.8107 96.244Z" fill="#FFE2CD"/>
<path d="M68.0981 87.0686C69.2302 87.9464 69.5736 89.103 69.3715 90.266C69.6479 90.1146 69.9608 90.0392 70.3002 90.0321C70.7003 90.0083 71.2748 90.2311 71.8714 90.487C72.1262 90.5891 72.619 90.7327 73.1246 90.5523L72.0467 91.9426C71.9389 92.0816 71.6104 92.0336 71.1481 91.707C70.6064 91.3188 69.6602 90.9191 69.0404 91.329C69.025 91.3488 69.0195 91.3764 68.9964 91.4062L70.3569 92.461C70.5555 92.615 70.9878 92.7752 71.5078 92.6377L70.0064 94.5742C70.0023 94.0464 69.7394 93.6676 69.5408 93.5137L63.9498 89.179C63.7512 89.025 63.3189 88.8647 62.8066 88.9923L63.7228 87.8105C64.1925 87.2047 65.3083 86.1141 66.671 86.4074C67.177 86.5135 67.6711 86.7376 68.0981 87.0686ZM67.407 88.4727C66.3191 87.661 65.0834 87.4502 64.6676 87.9865L64.6368 88.0262L68.4006 90.9442C68.9395 90.2491 68.1519 89.0501 67.407 88.4727Z" fill="#FFE2CD"/>
<path d="M72.0398 85.7738L72.7666 84.9238L70.6582 83.8318L72.0398 85.7738ZM77.6327 85.2657L75.9096 87.2808C75.9308 86.7533 75.7301 86.4659 75.4137 86.2946L73.5371 85.3182L72.549 86.4737L73.8542 88.3504C74.0248 88.5955 74.3616 88.6851 74.7255 88.6655L73.4596 90.1458C73.4878 89.7069 73.4083 89.3745 73.2076 89.0871L68.4059 82.0381L68.8877 81.4746L76.3991 85.1036C76.5655 85.1797 77.0891 85.3794 77.6327 85.2657Z" fill="#FFE2CD"/>
<path d="M84.5898 78.5914C83.7014 78.5754 84.0029 79.1052 83.3789 79.7071C81.9771 81.0594 79.331 79.4566 78.1358 78.2176C76.9406 76.9786 75.4253 74.2675 76.8271 72.9153C77.4511 72.3133 77.9696 72.6337 77.9856 71.7453L80.5767 74.4313C79.0291 73.5148 78.0159 73.0255 77.4914 73.5315C76.8945 74.1073 78.0365 75.8341 79.2753 77.1183C80.5141 78.4025 82.2075 79.6149 82.8044 79.0392C83.3289 78.5332 82.8677 77.494 82.0074 75.9145L84.5898 78.5914Z" fill="#FFE2CD"/>
<path d="M84.4573 73.1806L85.2985 72.4436L83.3685 71.0606L84.4573 73.1806ZM90.0653 73.4797L88.071 75.2269C88.1677 74.7079 88.0102 74.3947 87.7217 74.1798L86.0045 72.9444L84.8609 73.9463L85.8835 75.9907C86.0172 76.2578 86.3376 76.3947 86.7006 76.4276L85.2356 77.711C85.3263 77.2807 85.2954 76.9403 85.138 76.6271L81.3966 68.9624L81.9543 68.4739L88.8677 73.1424C89.0214 73.2416 89.511 73.5143 90.0653 73.4797Z" fill="#FFE2CD"/>
<path d="M93.9053 70.4917L91.9082 72.0787C92.0218 71.5551 91.7439 71.3266 91.4541 71.1235L88.7071 69.1815L88.9161 70.0908L90.4093 71.9698C90.5656 72.1666 90.9475 72.4249 91.4852 72.4149L89.557 73.9472C89.6882 73.4256 89.5228 72.9953 89.3665 72.7985L84.9651 67.2599C84.8087 67.0631 84.4269 66.8048 83.8891 66.8148L85.8173 65.2825C85.6861 65.8041 85.8515 66.2344 86.0079 66.4312L87.7825 68.6644L87.0853 65.2219C87.0293 64.9293 86.649 64.8143 86.3092 64.8916L87.9521 63.5861C87.7725 63.9054 87.7278 64.3743 87.7953 64.7218L88.2586 67.0822L92.6444 70.1775C92.8676 70.3372 93.3595 70.5724 93.9053 70.4917Z" fill="#FFE2CD"/>
<path d="M96.0892 65.5887L97.674 67.7922L94.3586 70.1767C94.5147 69.662 94.3701 69.2243 94.2234 69.0203L90.0926 63.277C89.9458 63.0729 89.5768 62.7966 89.0392 62.7808L92.3546 60.3963L93.6019 62.1305C92.4564 61.5923 91.7301 61.9599 91.1079 62.4074L92.4726 64.3048L92.901 63.9967C93.4315 63.6152 93.4472 63.0775 93.2647 62.6516L94.7615 64.7327C94.4157 64.4241 93.901 64.268 93.3706 64.6496L92.9421 64.9577L95.356 68.3139C96.228 67.8261 96.5111 66.864 96.0892 65.5887Z" fill="#FFE2CD"/>
<path d="M101.355 62.6566C102.443 64.3326 101.737 65.2997 100.862 65.8674C100.219 66.2846 99.7556 66.2858 99.4815 66.4637C99.3339 66.5594 99.2416 66.6942 99.2172 66.9797L96.3514 62.5629C97.656 64.158 99.5791 65.6214 100.285 65.1632C100.728 64.8759 100.699 64.4155 100.248 63.7198C98.8249 61.5272 96.4311 62.3164 95.2166 60.7678C94.733 60.1379 94.4712 58.7648 95.7783 57.9167C96.2843 57.5884 96.6841 57.6736 96.9371 57.5094C97.0741 57.4205 97.1806 57.2615 97.2336 56.9276L99.0598 59.7421C98.4924 59.1216 96.7674 58.2636 96.0716 58.715C95.6078 59.016 95.8771 59.5003 96.253 59.8257C96.7668 60.2712 97.7327 60.5133 98.3678 60.7303C99.4506 61.1062 100.61 61.5076 101.355 62.6566Z" fill="#FFE2CD"/>
<path d="M107.57 51.3067L109.565 50.2688C109.309 50.7843 109.293 51.1611 109.461 51.4844L112.633 57.5823L113.535 58.4728L112.376 59.0758L107.77 54.715L110.061 59.1185C110.229 59.4417 110.547 59.6446 111.116 59.7311L108.886 60.8908C109.131 60.381 109.148 60.0042 108.985 59.6921L105.721 53.4158C105.558 53.1036 105.24 52.9008 104.683 52.8085L106.444 51.8924L110.661 55.8603L108.608 51.914C108.446 51.6018 108.128 51.399 107.57 51.3067Z" fill="#FFE2CD"/>
<path d="M116.906 56.9402L114.669 57.9707C114.92 57.4952 114.862 57.0379 114.757 56.8096L111.797 50.3841C111.692 50.1558 111.382 49.8142 110.857 49.6962L113.094 48.6658C112.843 49.1412 112.901 49.5985 113.007 49.8268L115.966 56.2524C116.072 56.4806 116.381 56.8223 116.906 56.9402Z" fill="#FFE2CD"/>
<path d="M120.909 48.654C121.446 49.9823 121.16 51.1546 120.4 52.0577C120.715 52.066 121.023 52.1584 121.32 52.3231C121.678 52.504 122.062 52.9858 122.449 53.5072C122.617 53.7237 122.971 54.0959 123.499 54.1945L121.867 54.8531C121.704 54.919 121.445 54.7121 121.21 54.1972C120.937 53.589 120.321 52.7673 119.579 52.8094C119.555 52.8188 119.537 52.8398 119.502 52.8539L120.146 54.4503C120.24 54.6833 120.533 55.0394 121.052 55.1824L118.78 56.0997C119.042 55.6415 119.005 55.182 118.911 54.9489L116.263 48.3888C116.169 48.1558 115.876 47.7997 115.369 47.652L116.756 47.0922C117.466 46.8052 118.98 46.4247 120.009 47.3641C120.393 47.7106 120.707 48.1529 120.909 48.654ZM119.605 49.5192C119.074 48.2702 118.113 47.4659 117.483 47.7199L117.437 47.7387L119.22 52.1548C120.035 51.8255 119.958 50.3931 119.605 49.5192Z" fill="#FFE2CD"/>
<path d="M124.967 49.5198L126.023 49.1513L124.751 47.1464L124.967 49.5198ZM130.055 51.8966L127.552 52.7702C127.836 52.3251 127.807 51.9758 127.62 51.6684L126.49 49.88L125.055 50.3809L125.238 52.6595C125.262 52.9572 125.507 53.2041 125.832 53.3705L123.993 54.0122C124.238 53.6471 124.337 53.3199 124.308 52.9705L123.708 44.4626L124.408 44.2183L129.071 51.1354C129.176 51.285 129.528 51.7212 130.055 51.8966Z" fill="#FFE2CD"/>
<path d="M139.427 49.6324C138.667 49.1713 138.661 49.7808 137.819 49.9867C135.927 50.4494 134.447 47.7323 134.038 46.0601C133.63 44.3878 133.685 41.2825 135.577 40.8199C136.419 40.614 136.706 41.1518 137.167 40.3923L138.054 44.0175C137.178 42.4465 136.549 41.5137 135.841 41.6868C135.035 41.8838 135.153 43.9507 135.576 45.684C136 47.4173 136.853 49.3174 137.659 49.1204C138.367 48.9473 138.491 47.8172 138.543 46.0193L139.427 49.6324Z" fill="#FFE2CD"/>
<path d="M142.036 44.8905L143.134 44.6772L142.163 42.5106L142.036 44.8905ZM146.731 47.9723L144.128 48.4779C144.473 48.0781 144.495 47.7283 144.354 47.3973L143.492 45.4653L141.999 45.7553L141.854 48.0365C141.835 48.3346 142.043 48.6142 142.34 48.8253L140.428 49.1967C140.723 48.8706 140.867 48.5609 140.889 48.211L141.515 39.705L142.243 39.5636L145.866 47.0779C145.949 47.241 146.235 47.7231 146.731 47.9723Z" fill="#FFE2CD"/>
<path d="M151.553 47.3239L149.028 47.6897C149.39 47.2945 149.265 46.9571 149.117 46.6357L147.721 43.5749L147.444 44.4657L147.788 46.841C147.824 47.0897 148.024 47.5051 148.494 47.7672L146.056 48.1204C146.432 47.7358 146.506 47.2807 146.47 47.032L145.456 40.0306C145.419 39.7818 145.22 39.3664 144.75 39.1043L147.187 38.7512C146.811 39.1358 146.738 39.5908 146.774 39.8396L147.183 42.6625L148.313 39.3371C148.412 39.0562 148.142 38.7653 147.809 38.6611L149.886 38.3602C149.57 38.5456 149.295 38.9282 149.179 39.2626L148.391 41.5352L150.622 46.4177C150.734 46.6681 151.041 47.1188 151.553 47.3239Z" fill="#FFE2CD"/>
<path d="M155.909 44.1872L156.169 46.8889L152.104 47.2801C152.497 46.914 152.593 46.4629 152.569 46.2128L151.891 39.1708C151.867 38.9206 151.688 38.4961 151.231 38.2118L155.296 37.8206L155.501 39.947C154.782 38.9053 153.969 38.8572 153.206 38.9306L153.43 41.2571L153.955 41.2066C154.606 41.144 154.89 40.6874 154.947 40.2275L155.192 42.7791C155.049 42.3385 154.683 41.9445 154.033 42.0071L153.507 42.0576L153.903 46.1728C154.902 46.1903 155.631 45.5015 155.909 44.1872Z" fill="#FFE2CD"/>
<path d="M161.935 44.305C162.031 46.3007 160.934 46.7811 159.892 46.8311C159.127 46.8678 158.725 46.6355 158.399 46.6511C158.223 46.6596 158.076 46.7295 157.911 46.9639L157.658 41.7049C157.983 43.7399 158.907 45.9725 159.748 45.9322C160.276 45.9069 160.482 45.4944 160.442 44.666C160.317 42.0553 157.851 41.5321 157.582 39.5825C157.481 38.7948 157.946 37.4767 159.503 37.402C160.105 37.3731 160.408 37.6479 160.709 37.6335C160.872 37.6256 161.044 37.5419 161.258 37.28L161.419 40.6312C161.241 39.8094 160.182 38.1997 159.354 38.2394C158.802 38.2659 158.791 38.82 158.952 39.2903C159.171 39.934 159.884 40.6294 160.323 41.1367C161.07 42.0066 161.869 42.9369 161.935 44.305Z" fill="#FFE2CD"/>
<path d="M173.018 37.6272L175.265 37.735C174.784 38.0516 174.58 38.3689 174.563 38.7329L174.233 45.5985L174.565 46.8221L173.259 46.7594L171.476 40.673L171.238 45.6308C171.22 45.9948 171.393 46.3302 171.841 46.6913L169.331 46.5708C169.799 46.2536 170.003 45.9363 170.02 45.5849L170.359 38.5185C170.376 38.1671 170.203 37.8317 169.768 37.4711L171.751 37.5663L173.396 43.1177L173.61 38.6746C173.627 38.3231 173.454 37.9877 173.018 37.6272Z" fill="#FFE2CD"/>
<path d="M178.249 47.1951L175.797 46.9592C176.254 46.6749 176.433 46.2503 176.457 46.0002L177.135 38.9582C177.159 38.708 177.064 38.257 176.67 37.8909L179.121 38.1268C178.665 38.411 178.485 38.8356 178.461 39.0858L177.783 46.1278C177.759 46.3779 177.855 46.8289 178.249 47.1951Z" fill="#FFE2CD"/>
<path d="M185.88 42.0512C185.674 43.4689 184.837 44.338 183.726 44.7356C183.994 44.9015 184.214 45.1365 184.387 45.4282C184.605 45.7645 184.695 46.3743 184.766 47.0195C184.803 47.2914 184.921 47.791 185.327 48.1419L183.586 47.8897C183.412 47.8644 183.292 47.555 183.348 46.9918C183.419 46.3291 183.3 45.3088 182.638 44.9716C182.613 44.968 182.586 44.9768 182.549 44.9714L182.302 46.6752C182.266 46.9239 182.34 47.3789 182.716 47.7635L180.291 47.4122C180.748 47.1483 180.948 46.7329 180.984 46.4842L181.998 39.4827C182.034 39.234 181.961 38.7789 181.597 38.3961L183.077 38.6106C183.836 38.7205 185.335 39.1535 185.751 40.4836C185.908 40.9762 185.957 41.5165 185.88 42.0512ZM184.317 42.1423C184.487 40.7956 184.061 39.6166 183.39 39.5193L183.34 39.5121L182.657 44.2253C183.528 44.3514 184.182 43.075 184.317 42.1423Z" fill="#FFE2CD"/>
<path d="M188.95 44.842L190.047 45.0553L189.958 42.6825L188.95 44.842ZM192.149 49.4573L189.547 48.9518C190.016 48.7101 190.167 48.3938 190.16 48.0341L190.084 45.92L188.592 45.6301L187.603 47.6909C187.474 47.9602 187.562 48.2974 187.758 48.6043L185.846 48.233C186.242 48.041 186.492 47.808 186.643 47.4917L190.408 39.8386L191.136 39.98L191.682 48.3041C191.698 48.4864 191.782 49.0404 192.149 49.4573Z" fill="#FFE2CD"/>
<path d="M201.386 52.219C200.962 51.4382 200.65 51.9617 199.819 51.7156C197.951 51.1628 198.041 48.0705 198.529 46.4197C199.018 44.769 200.629 42.114 202.497 42.6668C203.328 42.9129 203.305 43.522 204.086 43.0979L203.027 46.6764C203.061 44.8781 202.987 43.7555 202.288 43.5486C201.493 43.3132 200.554 45.1582 200.048 46.8691C199.541 48.5801 199.321 50.6511 200.116 50.8864C200.815 51.0933 201.492 50.1797 202.442 48.6525L201.386 52.219Z" fill="#FFE2CD"/>
<path d="M206.028 49.4359L207.084 49.8043L207.336 47.4433L206.028 49.4359ZM208.533 54.4623L206.03 53.5888C206.529 53.4169 206.724 53.1256 206.769 52.7685L206.997 50.6655L205.561 50.1645L204.287 52.0622C204.12 52.3102 204.159 52.6565 204.31 52.9885L202.471 52.3468C202.89 52.2135 203.171 52.0188 203.365 51.7274L208.189 44.6933L208.889 44.9376L208.236 53.254C208.226 53.4367 208.23 53.9971 208.533 54.4623Z" fill="#FFE2CD"/>
<path d="M213.026 56.3297L210.66 55.3748C211.172 55.2154 211.234 54.8609 211.268 54.5087L211.603 51.1613L210.915 51.7914L210.016 54.017C209.922 54.25 209.886 54.7096 210.159 55.1725L207.876 54.2505C208.394 54.1075 208.687 53.7514 208.781 53.5183L211.429 46.9583C211.523 46.7252 211.56 46.2656 211.286 45.8028L213.57 46.7248C213.051 46.8678 212.759 47.2238 212.665 47.4569L211.597 50.1019L214.248 47.798C214.475 47.605 214.387 47.2174 214.153 46.96L216.098 47.7456C215.732 47.7467 215.302 47.939 215.033 48.1692L213.208 49.736L212.677 55.0779C212.649 55.3508 212.687 55.8946 213.026 56.3297Z" fill="#FFE2CD"/>
<path d="M218.368 55.8124L217.233 58.2776L213.524 56.5689C214.048 56.451 214.358 56.1093 214.463 55.8811L217.423 49.4555C217.528 49.2272 217.587 48.7699 217.335 48.2945L221.044 50.0031L220.151 51.9433C220.054 50.6814 219.376 50.2308 218.68 49.9101L217.702 52.0329L218.181 52.2537C218.775 52.5271 219.25 52.2757 219.531 51.9069L218.459 54.2352C218.556 53.7823 218.438 53.2575 217.845 52.9841L217.366 52.7633L215.636 56.5182C216.49 57.0363 217.467 56.8083 218.368 55.8124Z" fill="#FFE2CD"/>
<path d="M223.516 58.9479C222.594 60.7204 221.405 60.5833 220.479 60.1021C219.799 59.7484 219.57 59.3456 219.28 59.1949C219.124 59.1137 218.961 59.0999 218.7 59.2193L221.13 54.5484C220.386 56.4699 220.061 58.8645 220.808 59.253C221.276 59.4966 221.662 59.2442 222.045 58.5084C223.251 56.1897 221.384 54.4962 222.132 52.676C222.442 51.9447 223.507 51.04 224.89 51.759C225.425 52.0373 225.548 52.4271 225.815 52.5662C225.96 52.6416 226.151 52.6559 226.468 52.5373L224.92 55.5138C225.18 54.7143 225.075 52.7905 224.34 52.4078C223.849 52.1526 223.561 52.6257 223.463 53.1131C223.329 53.7798 223.594 54.7395 223.719 55.3991C223.925 56.5264 224.148 57.7327 223.516 58.9479Z" fill="#FFE2CD"/>
<path d="M236.454 58.7585L238.341 59.9828C237.767 60.0144 237.431 60.1859 237.232 60.4916L233.491 66.2576L233.161 67.4816L232.065 66.7703L233.588 60.6136L230.887 64.7774C230.688 65.0831 230.668 65.4598 230.874 65.9974L228.766 64.6295C229.33 64.5911 229.666 64.4196 229.857 64.1245L233.708 58.1898C233.899 57.8946 233.919 57.5179 233.724 56.9871L235.39 58.0677L234.017 63.6928L236.438 59.9612C236.63 59.6661 236.649 59.2894 236.454 58.7585Z" fill="#FFE2CD"/>
<path d="M236.156 69.6584L234.157 68.2203C234.695 68.2045 235.064 67.9282 235.21 67.7242L239.341 61.9809C239.488 61.7769 239.632 61.3391 239.476 60.8244L241.476 62.2625C240.938 62.2783 240.569 62.5546 240.422 62.7586L236.292 68.5019C236.145 68.7059 236 69.1437 236.156 69.6584Z" fill="#FFE2CD"/>
<path d="M245.339 69.0559C244.448 70.1774 243.287 70.507 242.127 70.2909C242.275 70.5691 242.347 70.8829 242.35 71.2224C242.369 71.6227 242.139 72.1945 241.876 72.788C241.771 73.0415 241.621 73.5326 241.796 74.0403L240.418 72.9458C240.281 72.8364 240.333 72.5085 240.665 72.0501C241.059 71.5131 241.47 70.5717 241.068 69.947C241.048 69.9314 241.021 69.9256 240.991 69.9021L239.92 71.2499C239.764 71.4467 239.599 71.877 239.73 72.3986L237.811 70.8741C238.339 70.8763 238.721 70.618 238.877 70.4212L243.279 64.8826C243.435 64.6858 243.601 64.2555 243.479 63.7418L244.65 64.6721C245.25 65.149 246.327 66.2778 246.018 67.6368C245.905 68.1415 245.675 68.6329 245.339 69.0559ZM243.944 68.3481C244.768 67.27 244.994 66.0368 244.463 65.6147L244.423 65.5834L241.46 69.3119C242.149 69.8591 243.357 69.0859 243.944 68.3481Z" fill="#FFE2CD"/>
<path d="M246.587 73.0129L247.428 73.7498L248.545 71.6547L246.587 73.0129ZM247.028 78.6115L245.034 76.8643C245.561 76.8918 245.851 76.6946 246.026 76.3803L247.025 74.5156L245.881 73.5136L243.989 74.7962C243.742 74.9639 243.648 75.2996 243.663 75.6637L242.198 74.3802C242.637 74.4136 242.97 74.3381 243.26 74.1409L250.366 69.424L250.924 69.9126L247.205 77.3799C247.127 77.5453 246.921 78.0665 247.028 78.6115Z" fill="#FFE2CD"/>
<path d="M253.618 85.6481C253.645 84.7599 253.112 85.0551 252.517 84.4239C251.182 83.006 252.816 80.3793 254.069 79.199C255.323 78.0188 258.052 76.5361 259.387 77.954C259.981 78.5852 259.655 79.0999 260.543 79.1265L257.826 81.6851C258.761 80.1487 259.262 79.1414 258.763 78.6109C258.194 78.0071 256.454 79.1283 255.155 80.3517C253.856 81.575 252.623 83.2537 253.192 83.8574C253.692 84.388 254.736 83.9393 256.326 83.098L253.618 85.6481Z" fill="#FFE2CD"/>
<path d="M259.03 85.5806L259.757 86.4305L261.163 84.5172L259.03 85.5806ZM258.664 91.1846L256.941 89.1695C257.459 89.2723 257.774 89.1187 257.992 88.8327L259.248 87.1305L258.26 85.9749L256.203 86.9729C255.935 87.1035 255.794 87.4222 255.757 87.7847L254.491 86.3044C254.92 86.4004 255.261 86.3735 255.576 86.2198L263.285 82.5707L263.767 83.1342L259.016 89.9911C258.915 90.1436 258.636 90.6298 258.664 91.1846Z" fill="#FFE2CD"/>
<path d="M261.606 95.0599L260.043 93.0439C260.565 93.1638 260.797 92.8886 261.003 92.6013L262.978 89.8778L262.066 90.0758L260.169 91.5464C259.971 91.7004 259.708 92.0791 259.712 92.6169L258.203 90.6705C258.722 90.8079 259.155 90.6477 259.353 90.4937L264.944 86.159C265.143 86.005 265.406 85.6263 265.402 85.0885L266.911 87.0349C266.391 86.8975 265.959 87.0577 265.761 87.2117L263.506 88.9594L266.957 88.3035C267.25 88.2511 267.37 87.8721 267.296 87.5315L268.582 89.1899C268.265 89.0065 267.797 88.9562 267.448 89.0195L265.083 89.4545L261.935 93.8029C261.773 94.0242 261.531 94.5131 261.606 95.0599Z" fill="#FFE2CD"/>
<path d="M266.482 97.3027L264.26 98.8609L261.915 95.5172C262.428 95.6794 262.868 95.5401 263.073 95.3958L268.866 91.3342C269.072 91.1899 269.352 90.8242 269.375 90.2868L271.719 93.6306L269.97 94.857C270.522 93.718 270.163 92.9874 269.723 92.3598L267.809 93.7017L268.112 94.1338C268.488 94.6688 269.025 94.691 269.453 94.5136L267.354 95.9853C267.667 95.6433 267.829 95.1305 267.454 94.5955L267.151 94.1634L263.766 96.5369C264.243 97.4146 265.202 97.7093 266.482 97.3027Z" fill="#FFE2CD"/>
<path d="M269.351 102.603C267.662 103.671 266.704 102.953 266.146 102.072C265.737 101.424 265.741 100.96 265.567 100.684C265.473 100.535 265.339 100.441 265.054 100.413L269.505 97.6008C267.894 98.8862 266.408 100.792 266.857 101.503C267.139 101.95 267.6 101.926 268.301 101.483C270.511 100.087 269.75 97.6835 271.313 96.4876C271.949 96.0116 273.325 95.7664 274.157 97.0835C274.48 97.5934 274.39 97.9921 274.551 98.2471C274.638 98.3852 274.796 98.4936 275.129 98.5506L272.293 100.343C272.92 99.783 273.799 98.0683 273.356 97.3672C273.06 96.8999 272.573 97.1633 272.243 97.5353C271.791 98.0437 271.538 99.0066 271.313 99.6391C270.924 100.717 270.509 101.872 269.351 102.603Z" fill="#FFE2CD"/>
<path d="M280.626 108.954L281.64 110.961C281.127 110.699 280.751 110.678 280.425 110.843L274.29 113.941L273.389 114.833L272.799 113.666L277.215 109.113L272.785 111.351C272.459 111.515 272.253 111.831 272.159 112.399L271.027 110.155C271.533 110.406 271.91 110.427 272.224 110.268L278.539 107.079C278.853 106.921 279.06 106.605 279.159 106.048L280.054 107.821L276.035 111.99L280.006 109.984C280.32 109.826 280.527 109.51 280.626 108.954Z" fill="#FFE2CD"/>
<path d="M274.88 118.221L273.877 115.972C274.349 116.229 274.807 116.176 275.037 116.074L281.497 113.191C281.727 113.089 282.072 112.783 282.197 112.26L283.2 114.509C282.728 114.252 282.27 114.305 282.04 114.408L275.58 117.29C275.35 117.393 275.005 117.698 274.88 118.221Z" fill="#FFE2CD"/>
<path d="M283.118 122.324C281.784 122.844 280.615 122.545 279.721 121.774C279.709 122.089 279.613 122.396 279.445 122.691C279.259 123.046 278.773 123.425 278.247 123.805C278.028 123.971 277.652 124.32 277.547 124.847L276.908 123.208C276.844 123.044 277.054 122.786 277.572 122.558C278.183 122.292 279.012 121.686 278.979 120.944C278.97 120.92 278.949 120.901 278.936 120.866L277.332 121.491C277.097 121.583 276.738 121.871 276.589 122.388L275.699 120.105C276.154 120.373 276.614 120.342 276.848 120.25L283.439 117.681C283.673 117.59 284.033 117.301 284.187 116.796L284.73 118.189C285.008 118.903 285.371 120.421 284.419 121.439C284.068 121.819 283.622 122.128 283.118 122.324ZM282.269 121.01C283.524 120.493 284.34 119.542 284.093 118.909L284.075 118.863L279.638 120.592C279.957 121.412 281.391 121.352 282.269 121.01Z" fill="#FFE2CD"/>
<path d="M282.204 126.371L282.56 127.431L284.58 126.184L282.204 126.371ZM279.766 131.431L278.923 128.917C279.364 129.206 279.714 129.182 280.024 128.998L281.825 127.89L281.342 126.448L279.061 126.604C278.763 126.624 278.513 126.867 278.343 127.189L277.724 125.343C278.086 125.593 278.412 125.695 278.761 125.671L287.276 125.173L287.512 125.876L280.539 130.455C280.388 130.559 279.948 130.906 279.766 131.431Z" fill="#FFE2CD"/>
<path d="M281.918 140.828C282.388 140.074 281.779 140.061 281.583 139.216C281.143 137.319 283.878 135.872 285.555 135.483C287.232 135.094 290.336 135.187 290.776 137.085C290.972 137.929 290.431 138.21 291.185 138.68L287.549 139.523C289.13 138.666 290.071 138.048 289.906 137.338C289.719 136.53 287.65 136.623 285.912 137.026C284.174 137.429 282.264 138.258 282.451 139.066C282.616 139.776 283.744 139.915 285.541 139.988L281.918 140.828Z" fill="#FFE2CD"/>
<path d="M286.628 143.494L286.828 144.595L289.006 143.649L286.628 143.494ZM283.49 148.152L283.016 145.543C283.411 145.893 283.761 145.919 284.094 145.782L286.036 144.943L285.764 143.447L283.484 143.274C283.187 143.252 282.904 143.456 282.69 143.751L282.341 141.834C282.664 142.133 282.972 142.282 283.321 142.308L291.819 143.036L291.952 143.765L284.395 147.298C284.231 147.379 283.745 147.659 283.49 148.152Z" fill="#FFE2CD"/>
<path d="M284.081 152.981L283.745 150.453C284.136 150.819 284.475 150.698 284.798 150.554L287.875 149.195L286.988 148.907L284.609 149.223C284.36 149.256 283.942 149.451 283.674 149.917L283.35 147.476C283.73 147.856 284.184 147.935 284.434 147.902L291.447 146.972C291.696 146.939 292.114 146.744 292.381 146.277L292.705 148.719C292.325 148.338 291.871 148.259 291.622 148.292L288.794 148.667L292.106 149.838C292.385 149.94 292.68 149.673 292.788 149.342L293.064 151.422C292.882 151.104 292.503 150.825 292.17 150.704L289.907 149.889L284.998 152.061C284.746 152.171 284.292 152.472 284.081 152.981Z" fill="#FFE2CD"/>
<path d="M287.165 157.374L284.46 157.602L284.118 153.532C284.479 153.931 284.929 154.031 285.18 154.01L292.229 153.417C292.48 153.396 292.906 153.222 293.196 152.768L293.539 156.838L291.41 157.017C292.46 156.311 292.518 155.499 292.454 154.735L290.125 154.931L290.169 155.457C290.224 156.108 290.677 156.398 291.136 156.46L288.582 156.675C289.024 156.537 289.422 156.175 289.368 155.524L289.323 154.998L285.204 155.345C285.174 156.344 285.854 157.081 287.165 157.374Z" fill="#FFE2CD"/>
<path d="M286.975 163.398C284.978 163.47 284.511 162.368 284.473 161.326C284.446 160.56 284.683 160.161 284.671 159.835C284.665 159.659 284.597 159.511 284.364 159.343L289.626 159.154C287.587 159.453 285.344 160.351 285.374 161.193C285.393 161.72 285.803 161.932 286.632 161.902C289.244 161.808 289.796 159.349 291.749 159.102C292.538 159.011 293.85 159.492 293.906 161.049C293.928 161.652 293.65 161.951 293.661 162.253C293.666 162.416 293.748 162.589 294.007 162.806L290.655 162.927C291.478 162.759 293.101 161.719 293.071 160.891C293.051 160.338 292.497 160.32 292.025 160.476C291.379 160.687 290.675 161.392 290.162 161.825C289.283 162.561 288.344 163.349 286.975 163.398Z" fill="#FFE2CD"/>
<path d="M293.519 174.561L293.385 176.807C293.074 176.322 292.759 176.115 292.395 176.093L285.534 175.681L284.307 175.997L284.385 174.693L290.492 172.982L285.538 172.685C285.174 172.663 284.836 172.832 284.47 173.276L284.621 170.767C284.932 171.239 285.247 171.446 285.598 171.468L292.66 171.891C293.011 171.913 293.349 171.744 293.714 171.313L293.595 173.295L288.025 174.874L292.465 175.14C292.816 175.161 293.154 174.993 293.519 174.561Z" fill="#FFE2CD"/>
<path d="M283.89 179.676L284.155 177.228C284.434 177.688 284.856 177.873 285.106 177.9L292.139 178.662C292.389 178.689 292.841 178.599 293.212 178.209L292.947 180.658C292.668 180.198 292.246 180.013 291.996 179.986L284.962 179.224C284.712 179.197 284.26 179.287 283.89 179.676Z" fill="#FFE2CD"/>
<path d="M288.942 187.369C287.526 187.146 286.667 186.299 286.283 185.183C286.114 185.449 285.877 185.666 285.583 185.836C285.244 186.05 284.633 186.132 283.987 186.196C283.715 186.229 283.214 186.341 282.858 186.743L283.131 185.005C283.158 184.832 283.469 184.715 284.032 184.778C284.694 184.857 285.715 184.75 286.06 184.092C286.064 184.067 286.056 184.04 286.061 184.003L284.361 183.736C284.113 183.697 283.657 183.765 283.268 184.136L283.648 181.716C283.906 182.176 284.319 182.381 284.568 182.42L291.556 183.518C291.805 183.557 292.261 183.489 292.648 183.13L292.416 184.607C292.297 185.365 291.846 186.858 290.511 187.259C290.016 187.41 289.475 187.452 288.942 187.369ZM288.869 185.805C290.214 185.991 291.398 185.58 291.503 184.909L291.511 184.86L286.806 184.12C286.67 184.989 287.938 185.659 288.869 185.805Z" fill="#FFE2CD"/>
<path d="M286.114 190.405L285.888 191.5L288.261 191.439L286.114 190.405ZM281.461 193.549L281.997 190.953C282.233 191.425 282.548 191.58 282.908 191.577L285.022 191.527L285.33 190.038L283.281 189.024C283.014 188.892 282.676 188.976 282.366 189.169L282.761 187.261C282.948 187.659 283.178 187.912 283.492 188.067L291.1 191.923L290.949 192.649L282.619 193.096C282.437 193.11 281.882 193.187 281.461 193.549Z" fill="#FFE2CD"/>
<path d="M278.588 202.752C279.374 202.338 278.855 202.019 279.111 201.191C279.686 199.33 282.777 199.457 284.421 199.965C286.066 200.473 288.702 202.117 288.127 203.977C287.871 204.806 287.262 204.775 287.677 205.561L284.111 204.459C285.909 204.515 287.032 204.455 287.247 203.758C287.492 202.966 285.659 202.005 283.954 201.478C282.249 200.951 280.181 200.706 279.936 201.499C279.721 202.195 280.626 202.882 282.142 203.851L278.588 202.752Z" fill="#FFE2CD"/>
<path d="M281.316 207.427L280.934 208.479L283.292 208.759L281.316 207.427ZM276.259 209.872L277.163 207.379C277.329 207.88 277.618 208.079 277.974 208.128L280.074 208.381L280.593 206.951L278.71 205.654C278.464 205.485 278.118 205.52 277.784 205.666L278.448 203.835C278.576 204.256 278.767 204.539 279.056 204.737L286.032 209.645L285.779 210.342L277.471 209.589C277.289 209.577 276.728 209.574 276.259 209.872Z" fill="#FFE2CD"/>
<path d="M274.338 214.342L275.322 211.988C275.475 212.501 275.829 212.567 276.18 212.605L279.524 212.981L278.902 212.285L276.687 211.36C276.455 211.263 275.996 211.221 275.53 211.489L276.479 209.217C276.616 209.737 276.969 210.034 277.2 210.131L283.728 212.858C283.96 212.955 284.419 212.997 284.885 212.728L283.936 215.001C283.799 214.481 283.447 214.184 283.215 214.087L280.583 212.987L282.855 215.666C283.045 215.895 283.434 215.812 283.694 215.581L282.885 217.517C282.888 217.151 282.701 216.718 282.474 216.447L280.929 214.603L275.594 214.008C275.322 213.976 274.778 214.008 274.338 214.342Z" fill="#FFE2CD"/>
<path d="M274.792 219.69L272.34 218.525L274.093 214.837C274.205 215.363 274.543 215.676 274.77 215.784L281.159 218.821C281.386 218.929 281.843 218.993 282.321 218.747L280.568 222.436L278.639 221.519C279.902 221.437 280.361 220.765 280.69 220.073L278.579 219.069L278.352 219.546C278.072 220.136 278.317 220.615 278.683 220.9L276.368 219.799C276.819 219.903 277.345 219.791 277.626 219.201L277.852 218.724L274.119 216.95C273.59 217.798 273.807 218.777 274.792 219.69Z" fill="#FFE2CD"/>
<path d="M271.595 224.799C269.833 223.856 269.985 222.669 270.477 221.749C270.839 221.074 271.244 220.849 271.398 220.561C271.481 220.406 271.497 220.243 271.381 219.981L276.022 222.467C274.11 221.699 271.719 221.346 271.322 222.088C271.073 222.553 271.321 222.942 272.052 223.334C274.356 224.568 276.072 222.721 277.883 223.491C278.61 223.81 279.502 224.886 278.767 226.259C278.482 226.791 278.091 226.909 277.948 227.175C277.871 227.319 277.855 227.51 277.969 227.828L275.012 226.244C275.808 226.514 277.733 226.433 278.124 225.702C278.385 225.214 277.916 224.92 277.43 224.817C276.765 224.674 275.802 224.928 275.141 225.045C274.011 225.238 272.802 225.446 271.595 224.799Z" fill="#FFE2CD"/>
<path d="M271.629 237.74L270.382 239.612C270.358 239.037 270.19 238.699 269.887 238.497L264.166 234.686L262.946 234.342L263.67 233.254L269.808 234.851L265.677 232.1C265.374 231.898 264.998 231.874 264.458 232.073L265.851 229.981C265.882 230.545 266.05 230.883 266.343 231.078L272.231 235C272.524 235.195 272.9 235.219 273.433 235.031L272.333 236.683L266.724 235.243L270.427 237.709C270.719 237.904 271.096 237.928 271.629 237.74Z" fill="#FFE2CD"/>
<path d="M260.733 237.311L262.195 235.329C262.205 235.867 262.476 236.239 262.679 236.388L268.372 240.587C268.574 240.737 269.01 240.886 269.527 240.736L268.065 242.719C268.056 242.181 267.784 241.808 267.581 241.659L261.888 237.46C261.686 237.311 261.25 237.161 260.733 237.311Z" fill="#FFE2CD"/>
<path d="M261.226 246.5C260.115 245.596 259.799 244.431 260.029 243.273C259.749 243.418 259.435 243.486 259.095 243.485C258.695 243.499 258.126 243.263 257.535 242.992C257.283 242.884 256.794 242.729 256.284 242.897L257.395 241.533C257.506 241.397 257.833 241.453 258.288 241.79C258.82 242.191 259.756 242.613 260.386 242.219C260.402 242.199 260.408 242.172 260.432 242.142L259.097 241.055C258.902 240.897 258.474 240.726 257.951 240.851L259.498 238.951C259.489 239.479 259.743 239.864 259.938 240.023L265.423 244.49C265.618 244.649 266.047 244.819 266.562 244.704L265.618 245.864C265.133 246.458 263.992 247.521 262.637 247.196C262.133 247.077 261.645 246.842 261.226 246.5ZM261.95 245.113C263.018 245.951 264.249 246.191 264.677 245.665L264.709 245.626L261.016 242.619C260.461 243.301 261.219 244.518 261.95 245.113Z" fill="#FFE2CD"/>
<path d="M257.254 247.7L256.507 248.533L258.589 249.675L257.254 247.7ZM251.65 248.074L253.421 246.101C253.388 246.628 253.581 246.92 253.894 247.099L255.746 248.12L256.762 246.988L255.502 245.081C255.337 244.832 255.003 244.734 254.638 244.745L255.939 243.296C255.901 243.734 255.972 244.068 256.166 244.36L260.797 251.522L260.302 252.074L252.88 248.266C252.715 248.186 252.197 247.974 251.65 248.074Z" fill="#FFE2CD"/>
<path d="M244.536 254.58C245.423 254.617 245.135 254.08 245.773 253.494C247.207 252.175 249.814 253.841 250.979 255.108C252.144 256.376 253.594 259.122 252.16 260.441C251.522 261.027 251.011 260.695 250.974 261.582L248.448 258.835C249.973 259.788 250.974 260.302 251.511 259.809C252.121 259.247 251.021 257.494 249.813 256.18C248.606 254.866 246.942 253.614 246.331 254.175C245.795 254.668 246.231 255.718 247.053 257.318L244.536 254.58Z" fill="#FFE2CD"/>
<path d="M244.538 259.992L243.68 260.709L245.576 262.138L244.538 259.992ZM238.939 259.559L240.975 257.86C240.866 258.376 241.015 258.693 241.299 258.915L242.986 260.191L244.153 259.217L243.18 257.149C243.053 256.879 242.736 256.734 242.374 256.692L243.869 255.444C243.768 255.873 243.791 256.214 243.94 256.53L247.497 264.283L246.928 264.758L240.128 259.925C239.977 259.822 239.494 259.537 238.939 259.559Z" fill="#FFE2CD"/>
<path d="M235.029 262.454L237.063 260.915C236.937 261.436 237.209 261.671 237.494 261.881L240.194 263.888L240.007 262.974L238.559 261.06C238.408 260.859 238.032 260.592 237.494 260.589L239.459 259.103C239.315 259.622 239.47 260.056 239.622 260.256L243.889 265.899C244.04 266.099 244.416 266.367 244.954 266.37L242.989 267.855C243.133 267.337 242.978 266.903 242.826 266.702L241.106 264.427L241.72 267.885C241.769 268.179 242.147 268.303 242.488 268.234L240.815 269.5C241.002 269.185 241.058 268.717 240.999 268.368L240.592 265.997L236.282 262.798C236.062 262.633 235.576 262.386 235.029 262.454Z" fill="#FFE2CD"/>
<path d="M232.728 267.303L231.196 265.062L234.568 262.758C234.399 263.269 234.533 263.71 234.675 263.917L238.667 269.758C238.809 269.965 239.171 270.25 239.708 270.279L236.337 272.583L235.131 270.82C236.264 271.385 236.998 271.035 237.631 270.603L236.312 268.673L235.877 268.971C235.337 269.34 235.309 269.877 235.481 270.307L234.034 268.191C234.373 268.507 234.884 268.676 235.423 268.307L235.859 268.009L233.526 264.596C232.643 265.063 232.336 266.018 232.728 267.303Z" fill="#FFE2CD"/>
<path d="M227.393 270.108C226.346 268.406 227.074 267.456 227.963 266.91C228.615 266.508 229.079 266.518 229.357 266.347C229.507 266.255 229.603 266.122 229.634 265.837L232.393 270.322C231.127 268.696 229.239 267.187 228.522 267.628C228.073 267.904 228.091 268.365 228.526 269.072C229.895 271.298 232.307 270.566 233.484 272.143C233.953 272.785 234.181 274.164 232.854 274.98C232.341 275.296 231.943 275.202 231.686 275.36C231.547 275.445 231.437 275.602 231.376 275.934L229.618 273.077C230.17 273.711 231.874 274.61 232.58 274.175C233.051 273.885 232.794 273.395 232.426 273.06C231.923 272.603 230.963 272.338 230.333 272.105C229.26 271.704 228.11 271.275 227.393 270.108Z" fill="#FFE2CD"/>
<path d="M220.908 281.306L218.888 282.296C219.156 281.786 219.182 281.41 219.021 281.083L215.997 274.91L215.116 273.999L216.29 273.424L220.789 277.894L218.605 273.436C218.444 273.109 218.131 272.899 217.565 272.799L219.821 271.693C219.565 272.197 219.539 272.573 219.694 272.889L222.807 279.242C222.962 279.558 223.275 279.768 223.83 279.874L222.047 280.747L217.927 276.679L219.884 280.674C220.039 280.99 220.352 281.2 220.908 281.306Z" fill="#FFE2CD"/>
<path d="M211.71 275.45L213.971 274.473C213.708 274.943 213.756 275.401 213.855 275.632L216.66 282.127C216.76 282.357 217.061 282.706 217.583 282.837L215.322 283.813C215.584 283.344 215.537 282.885 215.437 282.655L212.632 276.16C212.533 275.929 212.231 275.58 211.71 275.45Z" fill="#FFE2CD"/>
<path d="M207.508 283.638C207.004 282.297 207.318 281.132 208.099 280.247C207.785 280.231 207.479 280.132 207.186 279.96C206.833 279.77 206.46 279.28 206.086 278.749C205.923 278.529 205.578 278.148 205.053 278.037L206.7 277.417C206.864 277.355 207.119 277.568 207.341 278.089C207.599 278.703 208.196 279.54 208.938 279.515C208.962 279.507 208.981 279.486 209.016 279.473L208.41 277.861C208.322 277.626 208.038 277.263 207.523 277.108L209.816 276.245C209.543 276.697 209.569 277.157 209.657 277.393L212.147 284.014C212.236 284.249 212.52 284.612 213.023 284.772L211.624 285.299C210.906 285.568 209.384 285.913 208.377 284.949C208.002 284.593 207.699 284.143 207.508 283.638ZM208.833 282.804C209.334 284.065 210.276 284.893 210.911 284.654L210.958 284.636L209.282 280.178C208.458 280.488 208.501 281.922 208.833 282.804Z" fill="#FFE2CD"/>
<path d="M203.473 282.675L202.408 283.018L203.632 285.053L203.473 282.675ZM198.443 280.177L200.966 279.364C200.672 279.802 200.692 280.152 200.872 280.463L201.959 282.278L203.406 281.812L203.278 279.53C203.261 279.231 203.021 278.979 202.701 278.805L204.554 278.207C204.301 278.566 204.194 278.891 204.214 279.241L204.61 287.761L203.904 287.988L199.409 280.961C199.307 280.809 198.966 280.365 198.443 280.177Z" fill="#FFE2CD"/>
<path d="M189.02 282.216C189.768 282.695 189.789 282.086 190.636 281.9C192.539 281.483 193.952 284.235 194.321 285.916C194.69 287.598 194.56 290.701 192.657 291.118C191.81 291.304 191.536 290.759 191.057 291.507L190.258 287.862C191.096 289.453 191.702 290.401 192.414 290.245C193.224 290.067 193.157 287.998 192.774 286.255C192.392 284.512 191.585 282.592 190.775 282.77C190.063 282.926 189.912 284.053 189.817 285.849L189.02 282.216Z" fill="#FFE2CD"/>
<path d="M186.297 286.894L185.195 287.08L186.114 289.27L186.297 286.894ZM181.678 283.7L184.292 283.257C183.938 283.648 183.908 283.998 184.041 284.332L184.856 286.284L186.355 286.03L186.555 283.753C186.581 283.455 186.38 283.171 186.088 282.953L188.009 282.627C187.706 282.946 187.554 283.252 187.524 283.601L186.694 292.09L185.963 292.214L182.521 284.615C182.442 284.45 182.168 283.961 181.678 283.7Z" fill="#FFE2CD"/>
<path d="M176.842 284.233L179.374 283.927C179.003 284.314 179.12 284.654 179.261 284.979L180.583 288.072L180.881 287.188L180.594 284.806C180.564 284.556 180.374 284.136 179.911 283.863L182.356 283.568C181.971 283.944 181.886 284.397 181.916 284.646L182.763 291.67C182.793 291.92 182.983 292.34 183.446 292.613L181.001 292.907C181.386 292.532 181.47 292.079 181.44 291.829L181.099 288.997L179.889 292.295C179.783 292.573 180.047 292.871 180.377 292.983L178.293 293.234C178.614 293.056 178.898 292.68 179.022 292.349L179.864 290.095L177.751 285.161C177.645 284.908 177.349 284.45 176.842 284.233Z" fill="#FFE2CD"/>
<path d="M172.412 287.264L172.217 284.557L176.29 284.263C175.888 284.62 175.781 285.068 175.799 285.319L176.308 292.375C176.326 292.626 176.496 293.055 176.945 293.35L172.872 293.643L172.718 291.513C173.412 292.571 174.223 292.639 174.988 292.584L174.82 290.253L174.293 290.291C173.641 290.338 173.346 290.787 173.279 291.246L173.094 288.689C173.227 289.133 173.584 289.535 174.235 289.488L174.762 289.451L174.465 285.327C173.466 285.286 172.721 285.957 172.412 287.264Z" fill="#FFE2CD"/>
<path d="M166.391 287.002C166.343 285.004 167.451 284.55 168.493 284.525C169.26 284.507 169.655 284.749 169.982 284.741C170.158 284.737 170.307 284.67 170.477 284.44L170.604 289.704C170.328 287.661 169.457 285.407 168.616 285.427C168.088 285.44 167.871 285.848 167.891 286.677C167.954 289.29 170.406 289.872 170.629 291.827C170.711 292.617 170.215 293.924 168.657 293.961C168.054 293.976 167.758 293.694 167.457 293.701C167.293 293.705 167.119 293.784 166.899 294.041L166.819 290.687C166.977 291.513 167.996 293.147 168.825 293.127C169.378 293.114 169.403 292.561 169.253 292.087C169.049 291.438 168.353 290.725 167.926 290.208C167.201 289.32 166.424 288.371 166.391 287.002Z" fill="#FFE2CD"/>
<path d="M167.894 59.3088C166.427 60.2134 165.536 62.7218 165.166 66.9572L165.07 68.0126L164.426 67.9166C164.083 67.8618 162.713 67.8207 161.397 67.8207C159.313 67.8207 158.861 67.8618 157.902 68.1359C155.626 68.7939 153.954 70.0001 152.72 71.8642C150.856 74.7015 146.607 84.4607 141.796 97.0161C139.822 102.156 139.589 102.828 139.685 103.198C139.74 103.39 140.302 103.979 141.083 104.623C142.18 105.542 142.481 105.72 142.893 105.72C143.276 105.72 144.263 105.185 147.69 103.143C160.794 95.3165 169.388 89.6419 171.704 87.2706C172.732 86.2289 173.157 85.5847 173.609 84.4059C174.528 82.0209 174.432 78.6079 173.335 75.4965C173.171 75.0579 173.047 74.6055 173.047 74.5233C173.047 74.4273 173.527 74.0984 174.117 73.7831C177.351 72.015 180.545 69.4655 181.326 68.0263C181.792 67.1765 181.834 66.2444 181.436 65.7098C180.696 64.7092 179.49 64.1747 176.46 63.503L175.131 63.2152L173.445 61.5293C171.485 59.5966 170.649 59.0895 169.278 59.0072C168.593 58.9798 168.36 59.0209 167.894 59.3088ZM169.963 61.6389C170.457 61.8582 171.06 62.3791 172.019 63.4071C172.773 64.2021 173.609 64.9697 173.87 65.1342C174.322 65.3946 175.665 65.751 178.297 66.3129C179.586 66.5871 179.627 66.7378 178.708 67.6836C177.612 68.7939 175.474 70.2879 172.91 71.7408C171.54 72.5084 171.663 72.5084 170.663 71.686L170.279 71.357L171.252 69.9041C172.348 68.273 172.444 67.8207 171.882 67.2724C171.512 66.8886 170.786 66.8064 170.416 67.0942C170.306 67.1902 169.826 67.8481 169.36 68.5471L168.511 69.8219L168.127 69.5477C167.414 69.0406 167.387 68.9446 167.483 67.574C167.743 64.0924 168.469 61.31 169.127 61.31C169.21 61.31 169.593 61.4607 169.963 61.6389ZM164.892 70.3838C165.66 70.562 165.893 70.7265 168.127 72.6043L170.539 74.6329L170.978 75.8803C172.54 80.4857 172.17 83.6246 169.785 85.8725C167.716 87.8189 161.986 91.6705 152.309 97.6192C149.362 99.4285 148.869 99.6752 148.677 99.5244C148.375 99.3051 145.072 96.5501 144.825 96.3171C144.606 96.1252 144.51 96.3993 146.977 90.2313C150.226 82.1031 152.899 76.0996 154.365 73.6324C155.462 71.7682 156.915 70.7265 159.012 70.2879C160.163 70.0549 163.658 70.1097 164.892 70.3838ZM146.703 101.005C146.676 101.018 145.867 101.512 144.894 102.074C143.098 103.143 142.865 103.212 142.427 102.732C142.235 102.499 142.262 102.334 142.975 100.484L143.742 98.469L145.236 99.7163C146.059 100.402 146.717 100.977 146.703 101.005Z" fill="#FFE2CD"/>
<path d="M161.671 73.2485C159.862 73.5501 159.478 73.7968 159.478 74.5918C159.491 75.7021 159.999 75.8802 162.219 75.5513C163.713 75.3183 163.974 75.236 164.248 74.9345C164.412 74.7426 164.549 74.4136 164.549 74.1943C164.549 73.7146 164.056 73.1252 163.59 73.0429C163.398 73.0155 162.534 73.1115 161.671 73.2485Z" fill="#FFE2CD"/>
<path d="M167.387 75.8528C166.893 76.2914 166.112 79.1699 166.331 79.7318C166.523 80.2527 167.332 80.5817 167.866 80.3487C168.086 80.2664 168.319 80.0882 168.374 79.9649C168.579 79.5674 169.21 77.1139 169.21 76.6889C169.21 76.127 168.826 75.7158 168.236 75.6198C167.853 75.5513 167.674 75.6061 167.387 75.8528Z" fill="#FFE2CD"/>
<path d="M137.725 106.008C136.916 106.405 135.957 107.488 135.45 108.571C134.408 110.791 135.217 113.039 137.451 114.177C139 114.958 141.59 115.328 143.633 115.054C145.922 114.753 147.32 114.177 150.897 112.135C154.571 110.024 156.065 109.517 158.724 109.517C161.438 109.503 163.028 109.983 166.564 111.847C169.607 113.45 171.375 113.944 174.103 113.944C177.022 113.944 178.845 113.45 183.437 111.422C186.494 110.079 187.577 109.709 189.263 109.503C190.688 109.311 190.921 109.188 191.086 108.53C191.195 108.119 190.935 107.557 190.51 107.282C190.181 107.063 190.03 107.049 188.879 107.2C187.179 107.419 185.863 107.844 182.505 109.284C177.749 111.34 176.365 111.682 173.609 111.586C171.444 111.504 170.649 111.244 167.085 109.489C163.096 107.529 161.794 107.173 158.655 107.186C155.517 107.2 154.009 107.694 149.732 110.12C145.73 112.381 143.934 112.957 141.522 112.779C139.534 112.628 138.52 112.285 137.753 111.477C137.424 111.134 137.341 110.928 137.355 110.476C137.369 109.681 137.711 109.078 138.657 108.16C139.576 107.282 139.699 106.803 139.164 106.213C138.712 105.734 138.383 105.679 137.725 106.008Z" fill="#FFE2CD"/>
</svg>
